<svg xmlns="http://www.w3.org/2000/svg" xmlns:xlink="http://www.w3.org/1999/xlink" contentStyleType="text/css" data-diagram-type="DESCRIPTION" height="383px" preserveAspectRatio="none" style="width:744px;height:383px;background:#FFFFFF;" version="1.1" viewBox="0 0 744 383" width="744px" zoomAndPan="magnify"><?plantuml 1.2026.6?><defs/><g><!--cluster Marginalia--><g class="cluster" data-qualified-name="Marginalia" data-source-line="7" id="ent0002"><rect fill="#FFFFFF" height="357" rx="2.5" ry="2.5" style="stroke:#000000;stroke-width:1;" width="285.93" x="86.91" y="12"/><text fill="#000000" font-family="Verdana" font-size="14" font-weight="700" lengthAdjust="spacing" textLength="83.5625" x="188.0937" y="26.9951">Marginalia</text></g><!--entity S1--><g class="entity" data-qualified-name="Marginalia.S1" data-source-line="8" id="ent0003"><ellipse cx="229.8847" cy="73.0049" fill="#FFFFFF" rx="118.4747" ry="26.0949" style="stroke:#000000;stroke-width:1;"/><text fill="#000000" font-family="Verdana" font-size="14" lengthAdjust="spacing" textLength="190.1279" x="134.8208" y="72.6911">S1 &#8212; Add a PDF and watch</text><text fill="#000000" font-family="Verdana" font-size="14" lengthAdjust="spacing" textLength="124.0107" x="167.8793" y="88.988">it become chunks</text></g><!--entity S2--><g class="entity" data-qualified-name="Marginalia.S2" data-source-line="9" id="ent0004"><ellipse cx="229.8753" cy="162.0031" fill="#FFFFFF" rx="126.9653" ry="27.7931" style="stroke:#000000;stroke-width:1;"/><text fill="#000000" font-family="Verdana" font-size="14" lengthAdjust="spacing" textLength="215.4277" x="122.1614" y="162.5278">S2 &#8212; Ask a grounded question</text><text fill="#000000" font-family="Verdana" font-size="14" lengthAdjust="spacing" textLength="142.0303" x="158.8601" y="178.8247">and follow a citation</text></g><!--entity S3--><g class="entity" data-qualified-name="Marginalia.S3" data-source-line="10" id="ent0005"><ellipse cx="229.8848" cy="246.003" fill="#FFFFFF" rx="96.0148" ry="21.603" style="stroke:#000000;stroke-width:1;"/><text fill="#000000" font-family="Verdana" font-size="14" lengthAdjust="spacing" textLength="167.2344" x="146.2676" y="250.6514">S3 &#8212; Sign up and log in</text></g><!--entity S4--><g class="entity" data-qualified-name="Marginalia.S4" data-source-line="11" id="ent0006"><ellipse cx="229.877" cy="327.9986" fill="#FFFFFF" rx="95.387" ry="25.3786" style="stroke:#000000;stroke-width:1;"/><text fill="#000000" font-family="Verdana" font-size="14" lengthAdjust="spacing" textLength="134.5586" x="162.5977" y="325.4588">S4 &#8212; Ask with zero</text><text fill="#000000" font-family="Verdana" font-size="14" lengthAdjust="spacing" textLength="117.6396" x="171.0572" y="341.7557">sources selected</text></g><!--entity User--><g class="entity" data-qualified-name="User" data-source-line="5" id="ent0001"><ellipse cx="26.9551" cy="174.35" fill="#FFFFFF" rx="8" ry="8" style="stroke:#000000;stroke-width:1;"/><path d="M26.9551,182.35 L26.9551,209.35 M13.9551,190.35 L39.9551,190.35 M26.9551,209.35 L13.9551,224.35 M26.9551,209.35 L39.9551,224.35" fill="none" style="stroke:#000000;stroke-width:1;"/><text fill="#000000" font-family="Verdana" font-size="14" lengthAdjust="spacing" textLength="31.9102" x="11" y="239.3451">User</text></g><g class="entity" data-qualified-name="GMN11" data-source-line="20" id="ent0012"><path d="M416.84,45.3 L416.84,69 L348.79,73 L416.84,77 L416.84,100.6984 A0,0 0 0 0 416.84,100.6984 L729.4132,100.6984 A0,0 0 0 0 729.4132,100.6984 L729.4132,55.3 L719.4132,45.3 L416.84,45.3 A0,0 0 0 0 416.84,45.3" fill="#FFFFFF" style="stroke:#000000;stroke-width:1;"/><path d="M719.4132,45.3 L719.4132,55.3 L729.4132,55.3 L719.4132,45.3" fill="#FFFFFF" style="stroke:#000000;stroke-width:1;"/><text fill="#000000" font-family="Verdana" font-size="13" lengthAdjust="spacing" textLength="184.1328" x="422.84" y="62.3669">process (ingestion pipeline),</text><text fill="#000000" font-family="Verdana" font-size="13" lengthAdjust="spacing" textLength="169.6348" x="422.84" y="77.4997">logical (chunks + offsets),</text><text fill="#000000" font-family="Verdana" font-size="13" lengthAdjust="spacing" textLength="291.5732" x="422.84" y="92.6325">physical (direct-to-Storage, embeddings API)</text></g><g class="entity" data-qualified-name="GMN14" data-source-line="25" id="ent0015"><path d="M435.81,141.87 L435.81,158 L356.98,162 L435.81,166 L435.81,182.1356 A0,0 0 0 0 435.81,182.1356 L710.4496,182.1356 A0,0 0 0 0 710.4496,182.1356 L710.4496,151.87 L700.4496,141.87 L435.81,141.87 A0,0 0 0 0 435.81,141.87" fill="#FFFFFF" style="stroke:#000000;stroke-width:1;"/><path d="M700.4496,141.87 L700.4496,151.87 L710.4496,151.87 L700.4496,141.87" fill="#FFFFFF" style="stroke:#000000;stroke-width:1;"/><text fill="#000000" font-family="Verdana" font-size="13" lengthAdjust="spacing" textLength="253.6396" x="441.81" y="158.9369">logical (retrieval, citations, grounding),</text><text fill="#000000" font-family="Verdana" font-size="13" lengthAdjust="spacing" textLength="247.3555" x="441.81" y="174.0697">process (chat request), physical (SSE)</text></g><g class="entity" data-qualified-name="GMN17" data-source-line="29" id="ent0018"><path d="M426.16,225.87 L426.16,242 L326.39,246 L426.16,250 L426.16,266.1356 A0,0 0 0 0 426.16,266.1356 L720.1029,266.1356 A0,0 0 0 0 720.1029,266.1356 L720.1029,235.87 L710.1029,225.87 L426.16,225.87 A0,0 0 0 0 426.16,225.87" fill="#FFFFFF" style="stroke:#000000;stroke-width:1;"/><path d="M710.1029,225.87 L710.1029,235.87 L720.1029,235.87 L710.1029,225.87" fill="#FFFFFF" style="stroke:#000000;stroke-width:1;"/><text fill="#000000" font-family="Verdana" font-size="13" lengthAdjust="spacing" textLength="272.9429" x="432.16" y="242.9369">process (proxy refresh), logical (ownerId),</text><text fill="#000000" font-family="Verdana" font-size="13" lengthAdjust="spacing" textLength="252.6812" x="432.16" y="258.0697">physical (the 307 smoke-test contract)</text></g><g class="entity" data-qualified-name="GMN20" data-source-line="33" id="ent0021"><path d="M469.55,307.87 L469.55,324 L325.48,328 L469.55,332 L469.55,348.1356 A0,0 0 0 0 469.55,348.1356 L676.7014,348.1356 A0,0 0 0 0 676.7014,348.1356 L676.7014,317.87 L666.7014,307.87 L469.55,307.87 A0,0 0 0 0 469.55,307.87" fill="#FFFFFF" style="stroke:#000000;stroke-width:1;"/><path d="M666.7014,307.87 L666.7014,317.87 L676.7014,317.87 L666.7014,307.87" fill="#FFFFFF" style="stroke:#000000;stroke-width:1;"/><text fill="#000000" font-family="Verdana" font-size="13" lengthAdjust="spacing" textLength="186.1514" x="475.55" y="324.9369">logical (zero-source branch),</text><text fill="#000000" font-family="Verdana" font-size="13" lengthAdjust="spacing" textLength="173.9829" x="475.55" y="340.0697">process (skipped retrieval)</text></g><!--link User to S1--><g class="link" data-entity-1="ent0001" data-entity-2="ent0003" data-link-type="dependency" data-source-line="14" id="lnk7"><path d="M42.86,165.17 C51.15,148.21 63.05,129.39 78.91,117 C95.16,104.31 110.2236,96.8115 130.0636,90.3815" fill="none" id="User-to-S1" style="stroke:#000000;stroke-width:1;"/><polygon fill="#000000" points="134.82,88.84,125.0252,87.8096,130.0636,90.3815,127.4916,95.4199,134.82,88.84" style="stroke:#000000;stroke-width:1;stroke-linejoin:miter;stroke-miterlimit:10;"/></g><!--link User to S2--><g class="link" data-entity-1="ent0001" data-entity-2="ent0004" data-link-type="dependency" data-source-line="15" id="lnk8"><path d="M43.39,200.77 C63.7,196.53 96.1358,189.743 132.0158,182.243" fill="none" id="User-to-S2" style="stroke:#000000;stroke-width:1;"/><polygon fill="#000000" points="136.91,181.22,127.282,179.1461,132.0158,182.243,128.9188,186.9768,136.91,181.22" style="stroke:#000000;stroke-width:1;stroke-linejoin:miter;stroke-miterlimit:10;"/></g><!--link User to S3--><g class="link" data-entity-1="ent0001" data-entity-2="ent0005" data-link-type="dependency" data-source-line="16" id="lnk9"><path d="M43.39,207.23 C67.83,212.34 112.0459,221.5764 153.5959,230.2664" fill="none" id="User-to-S3" style="stroke:#000000;stroke-width:1;"/><polygon fill="#000000" points="158.49,231.29,150.4995,225.5323,153.5959,230.2664,148.8617,233.3628,158.49,231.29" style="stroke:#000000;stroke-width:1;stroke-linejoin:miter;stroke-miterlimit:10;"/></g><!--link User to S4--><g class="link" data-entity-1="ent0001" data-entity-2="ent0006" data-link-type="dependency" data-source-line="17" id="lnk10"><path d="M43.4,240.21 C51.8,256.01 63.63,273.53 78.91,285 C98.4,299.64 117.8963,307.9841 141.2463,314.3541" fill="none" id="User-to-S4" style="stroke:#000000;stroke-width:1;"/><polygon fill="#000000" points="146.07,315.67,138.44,309.4423,141.2463,314.3541,136.3345,317.1603,146.07,315.67" style="stroke:#000000;stroke-width:1;stroke-linejoin:miter;stroke-miterlimit:10;"/></g><?plantuml-src TLBDRjim3BxhARXUrg0sjiG6TXiGO1lGmu02tcwvA19j2L4aJvIRTSE0FSIUS4yookfIfq1F8aJo-o7v6huOX9ira48lemq4Vt__0PJAm3r6srlKW5xNATJyWFMGk67RlDcsG4XaWoVnYl-E2AEJrWk7VO8K8Dh19D0seafS9OHKAKJuIXY5o9_I3mxXiuo3zT9P2Jy5m4Ie925STUjPoLPha73tuHD8fZ_9fCpEsmHxL84fbPdyWQv04dJhY_PDQQS3jmynJ5wpasyJKXQpyncj3yw54-ULJJ9_5vpD1KuputHsy32DimWN1fv3gMqkQjipvyac0pymXfsdC4M5nDDoR1frQMp5Bo7oBA2ktsVjJ_5c4JUBk1N2XuIFWmrzSJp6mEW4rzOFnHoCTaHdFQugphDQgwI3wp8gkE7EdZ3Hd1tD0vLqMLJUSyThaWDMWCSzQisu1DkxsvN81v0LF9UnMT94JD7YlNJLUQnKFMw0eGhhVytAo0GHvxMigeMQhlluCb-pXE3W-mDZz179CCPPI3XvZBVwcSrylStRTq37SC0wCI-eu5FautoPi5qQp5kjor9X7wLNvj8J7UmuygsT1_64-my0?></g></svg>